<mxfile>
    <diagram id="MYyydcppc4Fit568sN2x" name="Page-1">
        <mxGraphModel dx="734" dy="437" grid="1" gridSize="10" guides="1" tooltips="1" connect="1" arrows="1" fold="1" page="1" pageScale="1" pageWidth="1169" pageHeight="827" math="0" shadow="0">
            <root>
                <mxCell id="0"/>
                <mxCell id="1" parent="0"/>
                <mxCell id="4" value="" style="edgeStyle=orthogonalEdgeStyle;rounded=0;orthogonalLoop=1;jettySize=auto;html=1;strokeColor=#FF8000;sketch=1;fillOpacity=0;labelBackgroundColor=none;fontColor=#6EA31D;" edge="1" parent="1" source="2" target="3">
                    <mxGeometry relative="1" as="geometry"/>
                </mxCell>
                <mxCell id="2" value="construct query" style="whiteSpace=wrap;html=1;strokeColor=#FF8000;sketch=1;fillOpacity=0;labelBackgroundColor=none;fontColor=#6EA31D;" vertex="1" parent="1">
                    <mxGeometry x="30" y="80" width="120" height="60" as="geometry"/>
                </mxCell>
                <mxCell id="6" value="" style="edgeStyle=orthogonalEdgeStyle;rounded=0;orthogonalLoop=1;jettySize=auto;html=1;strokeColor=#FF8000;sketch=1;fillOpacity=0;labelBackgroundColor=none;fontColor=#6EA31D;" edge="1" parent="1" source="3" target="5">
                    <mxGeometry relative="1" as="geometry"/>
                </mxCell>
                <mxCell id="3" value="query for both &quot;song&quot; and &quot;video&quot; results" style="whiteSpace=wrap;html=1;strokeColor=#FF8000;sketch=1;fillOpacity=0;labelBackgroundColor=none;fontColor=#6EA31D;" vertex="1" parent="1">
                    <mxGeometry x="190" y="80" width="120" height="60" as="geometry"/>
                </mxCell>
                <mxCell id="8" value="" style="edgeStyle=orthogonalEdgeStyle;rounded=0;orthogonalLoop=1;jettySize=auto;html=1;strokeColor=#FF8000;sketch=1;fillOpacity=0;labelBackgroundColor=none;fontColor=#6EA31D;" edge="1" parent="1" source="5" target="7">
                    <mxGeometry relative="1" as="geometry"/>
                </mxCell>
                <mxCell id="5" value="simplified_results = [ ]&lt;br&gt;&lt;br&gt;(this is to store the results)" style="whiteSpace=wrap;html=1;strokeColor=#FF8000;sketch=1;fillOpacity=0;labelBackgroundColor=none;fontColor=#6EA31D;" vertex="1" parent="1">
                    <mxGeometry x="350" y="80" width="160" height="60" as="geometry"/>
                </mxCell>
                <mxCell id="16" value="" style="edgeStyle=orthogonalEdgeStyle;rounded=0;orthogonalLoop=1;jettySize=auto;html=1;strokeColor=#FF8000;sketch=1;fillOpacity=0;labelBackgroundColor=none;fontColor=#6EA31D;" edge="1" parent="1" source="7" target="15">
                    <mxGeometry relative="1" as="geometry"/>
                </mxCell>
                <mxCell id="29" style="edgeStyle=orthogonalEdgeStyle;rounded=0;orthogonalLoop=1;jettySize=auto;html=1;exitX=0;exitY=0.25;exitDx=0;exitDy=0;entryX=0.75;entryY=1;entryDx=0;entryDy=0;strokeColor=#FF8000;sketch=1;fillOpacity=0;labelBackgroundColor=none;fontColor=#6EA31D;" edge="1" parent="1" source="26" target="7">
                    <mxGeometry relative="1" as="geometry"/>
                </mxCell>
                <mxCell id="42" value="exit" style="edgeStyle=orthogonalEdgeStyle;rounded=0;orthogonalLoop=1;jettySize=auto;html=1;exitX=0.25;exitY=1;exitDx=0;exitDy=0;entryX=1;entryY=0.5;entryDx=0;entryDy=0;strokeColor=#FF8000;sketch=1;fillOpacity=0;labelBackgroundColor=none;fontColor=#6EA31D;align=left;" edge="1" parent="1" source="7" target="41">
                    <mxGeometry relative="1" as="geometry"/>
                </mxCell>
                <mxCell id="7" value="for each result" style="whiteSpace=wrap;html=1;strokeColor=#FF8000;sketch=1;fillOpacity=0;labelBackgroundColor=none;fontColor=#6EA31D;" vertex="1" parent="1">
                    <mxGeometry x="560" y="80" width="120" height="60" as="geometry"/>
                </mxCell>
                <mxCell id="18" value="yes&lt;br&gt;&amp;nbsp; &amp;nbsp;" style="edgeStyle=orthogonalEdgeStyle;rounded=0;orthogonalLoop=1;jettySize=auto;html=1;align=center;strokeColor=#FF8000;sketch=1;fillOpacity=0;labelBackgroundColor=none;fontColor=#6EA31D;" edge="1" parent="1" source="15" target="17">
                    <mxGeometry relative="1" as="geometry"/>
                </mxCell>
                <mxCell id="25" value="no" style="edgeStyle=orthogonalEdgeStyle;rounded=0;orthogonalLoop=1;jettySize=auto;html=1;align=left;strokeColor=#FF8000;sketch=1;fillOpacity=0;labelBackgroundColor=none;fontColor=#6EA31D;" edge="1" parent="1" source="15" target="24">
                    <mxGeometry relative="1" as="geometry"/>
                </mxCell>
                <mxCell id="15" value="result is &quot;song result&quot;?" style="whiteSpace=wrap;html=1;strokeColor=#FF8000;sketch=1;fillOpacity=0;labelBackgroundColor=none;fontColor=#6EA31D;" vertex="1" parent="1">
                    <mxGeometry x="760" y="80" width="120" height="60" as="geometry"/>
                </mxCell>
                <mxCell id="19" style="edgeStyle=orthogonalEdgeStyle;rounded=0;orthogonalLoop=1;jettySize=auto;html=1;entryX=0.75;entryY=0;entryDx=0;entryDy=0;strokeColor=#FF8000;sketch=1;fillOpacity=0;labelBackgroundColor=none;fontColor=#6EA31D;exitX=0.5;exitY=0;exitDx=0;exitDy=0;" edge="1" parent="1" source="17" target="7">
                    <mxGeometry relative="1" as="geometry">
                        <Array as="points">
                            <mxPoint x="990" y="40"/>
                            <mxPoint x="650" y="40"/>
                        </Array>
                    </mxGeometry>
                </mxCell>
                <mxCell id="23" value="no" style="edgeStyle=orthogonalEdgeStyle;rounded=0;orthogonalLoop=1;jettySize=auto;html=1;align=left;strokeColor=#FF8000;sketch=1;fillOpacity=0;labelBackgroundColor=none;fontColor=#6EA31D;" edge="1" parent="1" source="17" target="22">
                    <mxGeometry relative="1" as="geometry"/>
                </mxCell>
                <mxCell id="17" value="album is undefined?" style="whiteSpace=wrap;html=1;strokeColor=#FF8000;sketch=1;fillOpacity=0;labelBackgroundColor=none;fontColor=#6EA31D;" vertex="1" parent="1">
                    <mxGeometry x="930" y="80" width="120" height="60" as="geometry"/>
                </mxCell>
                <mxCell id="20" value="yes" style="text;html=1;align=center;verticalAlign=middle;resizable=0;points=[];autosize=1;sketch=1;fillOpacity=0;labelBackgroundColor=none;fontColor=#6EA31D;" vertex="1" parent="1">
                    <mxGeometry x="960" y="60" width="30" height="20" as="geometry"/>
                </mxCell>
                <mxCell id="28" style="edgeStyle=orthogonalEdgeStyle;rounded=0;orthogonalLoop=1;jettySize=auto;html=1;entryX=1;entryY=0.5;entryDx=0;entryDy=0;exitX=0.5;exitY=1;exitDx=0;exitDy=0;strokeColor=#FF8000;sketch=1;fillOpacity=0;labelBackgroundColor=none;fontColor=#6EA31D;" edge="1" parent="1" source="22" target="26">
                    <mxGeometry relative="1" as="geometry"/>
                </mxCell>
                <mxCell id="22" value="define res_album as the result's album name" style="whiteSpace=wrap;html=1;strokeColor=#FF8000;sketch=1;fillOpacity=0;labelBackgroundColor=none;fontColor=#6EA31D;" vertex="1" parent="1">
                    <mxGeometry x="920" y="190" width="140" height="60" as="geometry"/>
                </mxCell>
                <mxCell id="27" value="" style="edgeStyle=orthogonalEdgeStyle;rounded=0;orthogonalLoop=1;jettySize=auto;html=1;strokeColor=#FF8000;sketch=1;fillOpacity=0;labelBackgroundColor=none;fontColor=#6EA31D;" edge="1" parent="1" source="24" target="26">
                    <mxGeometry relative="1" as="geometry"/>
                </mxCell>
                <mxCell id="24" value="define res_album as&lt;br&gt;None" style="whiteSpace=wrap;html=1;strokeColor=#FF8000;sketch=1;fillOpacity=0;labelBackgroundColor=none;fontColor=#6EA31D;" vertex="1" parent="1">
                    <mxGeometry x="760" y="190" width="120" height="60" as="geometry"/>
                </mxCell>
                <mxCell id="33" value="" style="edgeStyle=orthogonalEdgeStyle;rounded=0;orthogonalLoop=1;jettySize=auto;html=1;exitX=0;exitY=0.75;exitDx=0;exitDy=0;strokeColor=#FF8000;sketch=1;fillOpacity=0;labelBackgroundColor=none;fontColor=#6EA31D;" edge="1" parent="1" source="26" target="32">
                    <mxGeometry relative="1" as="geometry"/>
                </mxCell>
                <mxCell id="26" value="calculate result duration in seconds&lt;br&gt;&lt;br&gt;(str to int)" style="whiteSpace=wrap;html=1;strokeColor=#FF8000;sketch=1;fillOpacity=0;labelBackgroundColor=none;fontColor=#6EA31D;" vertex="1" parent="1">
                    <mxGeometry x="760" y="280" width="120" height="60" as="geometry"/>
                </mxCell>
                <mxCell id="30" value="error" style="text;html=1;align=center;verticalAlign=middle;resizable=0;points=[];autosize=1;sketch=1;fillOpacity=0;labelBackgroundColor=none;fontColor=#6EA31D;" vertex="1" parent="1">
                    <mxGeometry x="724" y="277" width="40" height="20" as="geometry"/>
                </mxCell>
                <mxCell id="35" value="" style="edgeStyle=orthogonalEdgeStyle;rounded=0;orthogonalLoop=1;jettySize=auto;html=1;strokeColor=#FF8000;sketch=1;fillOpacity=0;labelBackgroundColor=none;fontColor=#6EA31D;" edge="1" parent="1" source="32" target="34">
                    <mxGeometry relative="1" as="geometry"/>
                </mxCell>
                <mxCell id="32" value="construct a list of contributing artist" style="whiteSpace=wrap;html=1;strokeColor=#FF8000;sketch=1;fillOpacity=0;labelBackgroundColor=none;fontColor=#6EA31D;" vertex="1" parent="1">
                    <mxGeometry x="520" y="291" width="120" height="67" as="geometry"/>
                </mxCell>
                <mxCell id="36" style="edgeStyle=orthogonalEdgeStyle;rounded=0;orthogonalLoop=1;jettySize=auto;html=1;exitX=0.5;exitY=0;exitDx=0;exitDy=0;strokeColor=#FF8000;sketch=1;fillOpacity=0;labelBackgroundColor=none;fontColor=#6EA31D;" edge="1" parent="1" source="34">
                    <mxGeometry relative="1" as="geometry">
                        <mxPoint x="650" y="240" as="targetPoint"/>
                        <Array as="points">
                            <mxPoint x="420" y="240"/>
                        </Array>
                    </mxGeometry>
                </mxCell>
                <mxCell id="39" value="no&lt;br&gt;&amp;nbsp; &amp;nbsp;" style="edgeStyle=orthogonalEdgeStyle;rounded=0;orthogonalLoop=1;jettySize=auto;html=1;strokeColor=#FF8000;sketch=1;fillOpacity=0;labelBackgroundColor=none;fontColor=#6EA31D;" edge="1" parent="1" source="34" target="38">
                    <mxGeometry relative="1" as="geometry"/>
                </mxCell>
                <mxCell id="34" value="&lt;span&gt;&lt;font style=&quot;font-size: 12px&quot;&gt;&quot;cover&quot;,&amp;nbsp;&quot;festival&quot;,&lt;br&gt;&quot;amv&quot;, &quot;male&quot;,&amp;nbsp;&quot;female&quot;&lt;br&gt;or&amp;nbsp;&quot;switching&amp;nbsp;vocals&quot;&lt;br&gt;in result title but not in supplied song title?&lt;/font&gt;&lt;br&gt;&lt;/span&gt;" style="whiteSpace=wrap;html=1;strokeColor=#FF8000;sketch=1;fillOpacity=0;labelBackgroundColor=none;fontColor=#6EA31D;" vertex="1" parent="1">
                    <mxGeometry x="350" y="286.5" width="140" height="75.5" as="geometry"/>
                </mxCell>
                <mxCell id="37" value="yes" style="text;html=1;align=center;verticalAlign=middle;resizable=0;points=[];autosize=1;sketch=1;fillOpacity=0;labelBackgroundColor=none;fontColor=#6EA31D;" vertex="1" parent="1">
                    <mxGeometry x="420" y="267" width="30" height="20" as="geometry"/>
                </mxCell>
                <mxCell id="40" style="edgeStyle=orthogonalEdgeStyle;rounded=0;orthogonalLoop=1;jettySize=auto;html=1;exitX=0.5;exitY=0;exitDx=0;exitDy=0;strokeColor=#FF8000;sketch=1;fillOpacity=0;labelBackgroundColor=none;fontColor=#6EA31D;" edge="1" parent="1" source="38">
                    <mxGeometry relative="1" as="geometry">
                        <mxPoint x="650" y="240" as="targetPoint"/>
                        <Array as="points">
                            <mxPoint x="230" y="240"/>
                        </Array>
                    </mxGeometry>
                </mxCell>
                <mxCell id="38" value="construct simplified result and append to simplified_results" style="whiteSpace=wrap;html=1;strokeColor=#FF8000;sketch=1;fillOpacity=0;labelBackgroundColor=none;fontColor=#6EA31D;" vertex="1" parent="1">
                    <mxGeometry x="170" y="294.5" width="120" height="60" as="geometry"/>
                </mxCell>
                <mxCell id="41" value="return simplified_results" style="whiteSpace=wrap;html=1;strokeColor=#FF8000;sketch=1;fillOpacity=0;labelBackgroundColor=none;fontColor=#6EA31D;" vertex="1" parent="1">
                    <mxGeometry x="440" y="160" width="120" height="60" as="geometry"/>
                </mxCell>
            </root>
        </mxGraphModel>
    </diagram>
</mxfile>